<svg width="40" height="40" viewBox="0 0 40 40" fill="none" xmlns="http://www.w3.org/2000/svg">
<rect width="40" height="40" rx="8" fill="#0077B5"/>
<path d="M12.5 17.5H16.5V27.5H12.5V17.5ZM14.5 12.5C15.6046 12.5 16.5 13.3954 16.5 14.5C16.5 15.6046 15.6046 16.5 14.5 16.5C13.3954 16.5 12.5 15.6046 12.5 14.5C12.5 13.3954 13.3954 12.5 14.5 12.5Z" fill="white"/>
<path d="M18.5 17.5H22.3V19.3H22.34C22.84 18.4 24.04 17.3 25.84 17.3C29.84 17.3 30.5 19.8 30.5 23.1V27.5H26.5V23.9C26.5 22.4 26.47 20.5 24.37 20.5C22.24 20.5 21.9 22.1 21.9 23.8V27.5H17.9V17.5H18.5Z" fill="white"/>
</svg>